<svg width="1000" height="1000" viewBox="0 0 1000 1000" fill="none" xmlns="http://www.w3.org/2000/svg">
<g clip-path="url(#clip0_233_15)">
<path fill-rule="evenodd" clip-rule="evenodd" d="M160 500.002C160 337.712 270.826 201.643 420 165.203V0C181.886 38.785 0 247.878 0 500.002C0 752.122 181.886 961.217 420 1000V834.797C270.826 798.358 160 662.287 160 500.002ZM1000 500.002C1000 752.122 818.115 961.217 580 1000V834.797C729.175 798.358 840 662.287 840 500.002C840 337.712 729.175 201.643 580 165.203V0C818.115 38.785 1000 247.878 1000 500.002Z" fill="#1658F3"/>
</g>
<defs>
<clipPath id="clip0_233_15">
<rect width="1000" height="1000" fill="white"/>
</clipPath>
</defs>
</svg>
